Coordinates
version=1
nRows=14
nColumns=40
inDegrees=yes

Units are S.I. units (second, meters, Newtons, ...)
Angles are in degrees.

endheader
time	pelvis_tilt	pelvis_list	pelvis_rotation	pelvis_tx	pelvis_ty	pelvis_tz	hip_flexion_r	hip_adduction_r	hip_rotation_r	knee_angle_r	knee_angle_r_beta	ankle_angle_r	subtalar_angle_r	mtp_angle_r	hip_flexion_l	hip_adduction_l	hip_rotation_l	knee_angle_l	knee_angle_l_beta	ankle_angle_l	subtalar_angle_l	mtp_angle_l	lumbar_extension	lumbar_bending	lumbar_rotation	arm_flex_r	arm_add_r	arm_rot_r	elbow_flex_r	pro_sup_r	wrist_flex_r	wrist_dev_r	arm_flex_l	arm_add_l	arm_rot_l	elbow_flex_l	pro_sup_l	wrist_flex_l	wrist_dev_l
     57.58500000	     -4.26645328	     -5.53267459	      8.52442007	      1.02383772	      0.92610710	      0.51709879	      2.67397536	      3.40725713	    -18.77854821	      9.46525573	      9.46525573	     12.89540025	      1.36042086	     -7.66756353	     29.75854046	     -7.47853471	      0.35664636	     18.60454757	     18.60454757	      3.51149955	     -5.78910899	      5.61214014	     -9.67565242	      6.18943193	      2.77907913	     35.65744588	    -17.29519420	    -10.53541162	    100.92711891	     44.49307713	      0.00000000	      0.00000000	     -9.70475239	     -7.32431000	      4.70383483	     29.09702172	     44.53390353	      0.00000000	      0.00000000
     57.59821429	     -4.26177058	     -5.60976929	      8.40327397	      1.02532715	      0.92509363	      0.51556198	      2.29353922	      3.40778413	    -18.62138352	      9.68503179	      9.68503179	     13.34557926	      1.34852340	     -7.67930242	     29.31965305	     -7.54891548	     -0.06172965	     19.19844947	     19.19844947	      3.17877721	     -6.56335434	      5.24234883	     -9.48100976	      6.13746342	      2.87595656	     35.24012615	    -17.02537715	    -10.36445868	    100.66985638	     44.49883610	      0.00000000	      0.00000000	     -9.43964402	     -7.60940203	      4.64700271	     29.21007906	     44.55377654	      0.00000000	      0.00000000
     57.61142857	     -4.20548146	     -5.70458157	      8.24112526	      1.02695721	      0.92415858	      0.51389790	      1.88160040	      3.40056394	    -18.57753870	     10.01646937	     10.01646937	     14.30593013	      1.74915919	     -6.27863206	     28.60248397	     -7.56092400	      0.03308211	     19.33143925	     19.33143925	      1.48156986	     -8.46545388	      1.89941962	     -9.29129939	      6.10412478	      2.77144423	     35.05629809	    -16.54737731	    -10.01275225	     99.54494644	     44.58193392	      0.00000000	      0.00000000	     -9.30485213	     -7.89892563	      4.36887163	     29.56949625	     44.68508951	      0.00000000	      0.00000000
     57.62464286	     -4.12623612	     -5.69684165	      8.05684360	      1.02862224	      0.92341998	      0.51221123	      1.37300187	      3.31571088	    -18.36522173	     10.16339593	     10.16339593	     14.64660821	      1.76391542	     -6.32170803	     28.11327854	     -7.58289538	     -0.19975769	     20.04031451	     20.04031451	      1.55919803	     -9.16493810	      1.79476216	     -9.19002887	      5.95793148	      2.90228463	     34.38712760	    -16.21271908	     -9.83600960	     99.15632660	     44.58849280	      0.00000000	      0.00000000	     -8.86191732	     -8.23511772	      4.29521287	     29.69987031	     44.70721547	      0.00000000	      0.00000000
     57.63785714	     -4.03273754	     -5.66237040	      7.87714919	      1.03029197	      0.92280484	      0.51035736	      0.89428670	      3.17407883	    -18.13191916	     10.40854785	     10.40854785	     14.98724430	      1.72184852	     -6.29440135	     27.68495000	     -7.54101938	     -0.21794163	     20.81260243	     20.81260243	      1.75842942	     -9.98735170	      1.63882311	     -9.11606873	      5.78169507	      3.00727563	     33.61118149	    -15.93524155	     -9.68912860	     98.52777608	     44.60316950	      0.00000000	      0.00000000	     -8.31096445	     -8.58333187	      4.21502930	     29.85868713	     44.73192563	      0.00000000	      0.00000000
     57.65107143	     -4.06769246	     -5.62166551	      7.68545674	      1.03170388	      0.92215642	      0.50830281	      0.77871968	      2.92925071	    -17.77993165	     11.07610673	     11.07610673	     15.54040764	      1.40706580	     -5.71054499	     27.45579710	     -7.34322411	      0.29959314	     21.55947931	     21.55947931	      1.87656956	    -11.50263452	      1.61967645	     -8.86465843	      5.55968235	      3.23118622	     32.93391486	    -15.91114916	     -9.72259491	     96.69472948	     44.67053743	      0.00000000	      0.00000000	     -7.57334692	     -8.87821561	      4.08484495	     29.97712918	     44.77980364	      0.00000000	      0.00000000
     57.66428571	     -3.91022051	     -5.48933094	      7.51569977	      1.03330553	      0.92205595	      0.50610416	      0.30068843	      2.63544158	    -17.55061618	     11.45889321	     11.45889321	     15.77195316	      1.30458027	     -5.60233534	     27.00137709	     -7.17332894	      0.38693107	     22.23787847	     22.23787847	      2.34507804	    -12.09055835	      1.40334104	     -8.93417187	      5.29709166	      3.16863380	     31.97483276	    -15.46235096	     -9.45917599	     96.04564227	     44.68072769	      0.00000000	      0.00000000	     -6.89169034	     -9.22121631	      4.01599317	     30.13661660	     44.80420508	      0.00000000	      0.00000000
     57.67750000	     -3.92870423	     -5.33666123	      7.31025405	      1.03450006	      0.92184651	      0.50370080	      0.42081650	      2.16401413	    -17.12123718	     12.61361817	     12.61361817	     16.33918042	      0.77931252	     -4.78300656	     26.81315709	     -6.85367481	      0.80837722	     22.94107002	     22.94107002	      2.82766247	    -13.20028364	      1.61423002	     -8.73363558	      4.98580383	      3.32184387	     31.19945318	    -15.43490872	     -9.25286671	     93.69634994	     44.75613383	      0.00000000	      0.00000000	     -5.97149595	     -9.48750594	      3.91307838	     30.15369102	     44.85118192	      0.00000000	      0.00000000
     57.69071429	     -3.70927992	     -5.22763981	      7.20189264	      1.03598230	      0.92223619	      0.50113057	     -0.01460419	      1.84129696	    -16.92376083	     13.16984224	     13.16984224	     16.43318423	      0.63379350	     -4.69900937	     26.34552219	     -6.66137261	      0.98611083	     23.53838150	     23.53838150	      3.45168148	    -13.62164814	      1.39192430	     -8.89566812	      4.80026123	      3.17664199	     30.05182111	    -14.95987951	     -8.92173481	     92.94342858	     44.76601019	      0.00000000	      0.00000000	     -5.06956966	     -9.78820268	      3.85799677	     30.39917592	     44.87592526	      0.00000000	      0.00000000
     57.70392857	     -3.77691149	     -5.01373722	      6.93381925	      1.03692531	      0.92231412	      0.49842606	      0.51535841	      1.15868961	    -16.45429264	     14.97185626	     14.97185626	     16.89535709	     -0.09561774	     -4.19031874	     26.17602266	     -6.29871976	      1.14904136	     24.10421295	     24.10421295	      4.14638435	    -14.32838398	      1.79129097	     -8.68061915	      4.44024296	      3.50732190	     29.14511180	    -15.27542466	     -8.56678667	     90.02258242	     44.85233876	      0.00000000	      0.00000000	     -3.90297279	     -9.99311364	      3.82451668	     30.50291347	     44.91253460	      0.00000000	      0.00000000
     57.71714286	     -3.67304010	     -4.84044089	      6.71914948	      1.03803253	      0.92286571	      0.49556483	      0.75535888	      0.55558371	    -16.12451520	     16.53878525	     16.53878525	     17.03815812	     -0.61138232	     -3.88873304	     25.76806055	     -6.01785276	      1.18287750	     24.54859332	     24.54859332	      4.91156105	    -14.66456091	      2.06394595	     -8.69751723	      4.18238009	      3.54594376	     28.17515062	    -15.15075331	     -8.04038938	     87.74377850	     44.91038851	      0.00000000	      0.00000000	     -2.82731211	    -10.21396940	      3.83185761	     30.63723737	     44.93891455	      0.00000000	      0.00000000
     57.73035714	     -3.55436655	     -4.69348257	      6.49928252	      1.03907355	      0.92351489	      0.49261963	      1.11065171	     -0.05993704	    -15.73989678	     18.32961671	     18.32961671	     17.11575600	     -1.12693788	     -3.94475263	     25.29124989	     -5.77875150	      1.08665900	     24.87073756	     24.87073756	      5.59709283	    -14.86167452	      2.23576446	     -8.73196011	      3.98716519	      3.56896582	     27.03508005	    -15.08979947	     -7.50820187	     85.53140329	     44.96392148	      0.00000000	      0.00000000	     -1.65259609	    -10.40711674	      3.85950113	     30.92620306	     44.96086858	      0.00000000	      0.00000000
     57.74357143	     -3.49622274	     -4.54525859	      6.23956570	      1.03997468	      0.92418516	      0.48960570	      1.78349453	     -0.76475822	    -15.33546084	     20.53877449	     20.53877449	     17.00069063	     -1.79387503	     -4.25239427	     24.79211356	     -5.54910577	      0.86321538	     25.03794407	     25.03794407	      6.25276773	    -14.94729584	      2.38116730	     -8.70393194	      3.80927121	      3.68576950	     25.92352912	    -15.09668362	     -6.92015244	     83.05170994	     45.02395283	      0.00000000	      0.00000000	     -0.42166810	    -10.57217383	      3.93245475	     31.29466269	     44.97625852	      0.00000000	      0.00000000
     57.75678571	     -3.42869033	     -4.40378975	      5.97165242	      1.04069753	      0.92490007	      0.48661008	      2.66252064	     -1.50906056	    -14.85921431	     23.08969823	     23.08969823	     16.71151171	     -2.54262138	     -4.82898315	     24.24002275	     -5.34577900	      0.56086179	     25.10617835	     25.10617835	      6.81876001	    -14.91186682	      2.46890966	     -8.72861866	      3.64248813	      3.78460819	     24.78128737	    -15.07380144	     -6.27596300	     80.43752802	     45.08578339	      0.00000000	      0.00000000	      0.84215056	    -10.72579463	      4.04776744	     31.74556604	     44.98512834	      0.00000000	      0.00000000
